# xmcd
#
# Track frame offsets:
#	150
#	14434
#	31208
#	51599
#	70491
#	86401
#	109352
#	127935
#	143874
#	165574
#	188427
#	211071
#	238569
#	252939
#
# Disc length: 3609 seconds
#
# Revision: 0
# Processed by: cddbd v1.4PL0 Copyright (c) Steve Scherf et al.
# Submitted via: dBpowerAMP V4.0
#
DISCID=bd0e170e
DTITLE=Cross Country - Freedom and Family
DYEAR=2001
DGENRE=Country
TTITLE0=I Feel Like Travelin' On
TTITLE1=800-Pound Jesus
TTITLE2=Daddy Wont Sell the Farm
TTITLE3=Grace of God
TTITLE4=To Make You Feel My Love
TTITLE5=Holy-Roller Blues
TTITLE6=Name That Tune-Antics
TTITLE7=Beverly Hillbilly Rap
TTITLE8=The Booger Song
TTITLE9=My Choice
TTITLE10=Back in the Will
TTITLE11=Across the Miles
TTITLE12=God Bless the USA
TTITLE13=Spiritual Speach
EXTD=Christian Country
EXTT0=
EXTT1=
EXTT2=
EXTT3=
EXTT4=
EXTT5=
EXTT6=
EXTT7=
EXTT8=
EXTT9=
EXTT10=
EXTT11=
EXTT12=
EXTT13=
PLAYORDER=
